<svg width="1200" height="520" viewBox="0 0 1200 520" fill="none" xmlns="http://www.w3.org/2000/svg" role="img" aria-labelledby="title desc">
  <title id="title">Loom AI governance pipeline</title>
  <desc id="desc">A visual pipeline from typed Loom source through deterministic tests into generated AI governance artifacts and CI.</desc>
  <rect width="1200" height="520" rx="28" fill="#F6F8FB"/>
  <rect x="38" y="48" width="250" height="360" rx="18" fill="#132238"/>
  <rect x="68" y="82" width="112" height="16" rx="8" fill="#58C7B9"/>
  <rect x="68" y="124" width="180" height="12" rx="6" fill="#C8D3E1"/>
  <rect x="68" y="154" width="138" height="12" rx="6" fill="#C8D3E1"/>
  <rect x="68" y="206" width="168" height="46" rx="10" fill="#263A57"/>
  <rect x="88" y="224" width="92" height="10" rx="5" fill="#F6B14A"/>
  <rect x="68" y="276" width="168" height="46" rx="10" fill="#263A57"/>
  <rect x="88" y="294" width="118" height="10" rx="5" fill="#8DA2FB"/>
  <path d="M309 228H420" stroke="#5B6B82" stroke-width="8" stroke-linecap="round"/>
  <path d="M404 204L432 228L404 252" stroke="#5B6B82" stroke-width="8" stroke-linecap="round" stroke-linejoin="round"/>
  <rect x="452" y="48" width="296" height="360" rx="18" fill="#FFFFFF" stroke="#DCE3ED"/>
  <rect x="488" y="84" width="116" height="16" rx="8" fill="#132238"/>
  <rect x="488" y="128" width="224" height="42" rx="10" fill="#EDF7F5"/>
  <rect x="508" y="144" width="118" height="10" rx="5" fill="#158577"/>
  <rect x="488" y="194" width="224" height="42" rx="10" fill="#FFF5E6"/>
  <rect x="508" y="210" width="152" height="10" rx="5" fill="#BB7112"/>
  <rect x="488" y="260" width="224" height="42" rx="10" fill="#EFF2FF"/>
  <rect x="508" y="276" width="132" height="10" rx="5" fill="#5267D9"/>
  <rect x="488" y="326" width="224" height="42" rx="10" fill="#F3F5F8"/>
  <rect x="508" y="342" width="174" height="10" rx="5" fill="#596B81"/>
  <path d="M770 228H881" stroke="#5B6B82" stroke-width="8" stroke-linecap="round"/>
  <path d="M865 204L893 228L865 252" stroke="#5B6B82" stroke-width="8" stroke-linecap="round" stroke-linejoin="round"/>
  <rect x="913" y="48" width="250" height="360" rx="18" fill="#FFFFFF" stroke="#DCE3ED"/>
  <rect x="943" y="84" width="138" height="16" rx="8" fill="#132238"/>
  <rect x="943" y="132" width="178" height="34" rx="9" fill="#E9F7F4"/>
  <rect x="962" y="145" width="96" height="8" rx="4" fill="#158577"/>
  <rect x="943" y="184" width="178" height="34" rx="9" fill="#EEF2FF"/>
  <rect x="962" y="197" width="122" height="8" rx="4" fill="#5267D9"/>
  <rect x="943" y="236" width="178" height="34" rx="9" fill="#FFF3E2"/>
  <rect x="962" y="249" width="102" height="8" rx="4" fill="#BB7112"/>
  <rect x="943" y="288" width="178" height="34" rx="9" fill="#F3F5F8"/>
  <rect x="962" y="301" width="132" height="8" rx="4" fill="#596B81"/>
  <rect x="943" y="340" width="178" height="34" rx="9" fill="#F8ECEE"/>
  <rect x="962" y="353" width="112" height="8" rx="4" fill="#A83B50"/>
  <rect x="126" y="438" width="944" height="42" rx="21" fill="#132238"/>
  <circle cx="156" cy="459" r="8" fill="#58C7B9"/>
  <rect x="178" y="453" width="232" height="12" rx="6" fill="#DDE6F2"/>
  <circle cx="488" cy="459" r="8" fill="#F6B14A"/>
  <rect x="510" y="453" width="194" height="12" rx="6" fill="#DDE6F2"/>
  <circle cx="782" cy="459" r="8" fill="#8DA2FB"/>
  <rect x="804" y="453" width="188" height="12" rx="6" fill="#DDE6F2"/>
</svg>
